<?xml version="1.0" standalone="no"?>
<!DOCTYPE svg PUBLIC "-//W3C//DTD SVG 20010904//EN"
 "http://www.w3.org/TR/2001/REC-SVG-20010904/DTD/svg10.dtd">
<svg version="1.0" xmlns="http://www.w3.org/2000/svg"
 width="2048.000000pt" height="2048.000000pt" viewBox="0 0 2048.000000 2048.000000"
 preserveAspectRatio="xMidYMid meet">

<g transform="translate(0.000000,2048.000000) scale(0.100000,-0.100000)"
fill="#000000" stroke="none">
<path d="M0 10240 l0 -10240 10240 0 10240 0 0 10240 0 10240 -10240 0 -10240
0 0 -10240z m10297 7286 c32 -18 87 -49 123 -69 114 -62 381 -212 510 -287
273 -159 380 -219 490 -278 251 -133 430 -225 525 -271 463 -225 788 -381 791
-381 3 0 205 -92 336 -153 117 -55 155 -72 288 -127 69 -29 193 -83 275 -120
363 -164 944 -396 1275 -511 124 -42 331 -114 460 -159 362 -125 966 -308
1390 -421 198 -53 196 -52 230 -120 41 -80 119 -278 173 -439 37 -108 189
-630 262 -895 7 -27 43 -183 79 -345 170 -769 262 -1395 297 -2018 16 -279 16
-941 1 -1147 -89 -1185 -280 -2011 -682 -2950 -133 -310 -354 -738 -515 -1000
-77 -124 -297 -456 -369 -555 -25 -36 -61 -85 -78 -110 -18 -25 -85 -111 -149
-192 -373 -464 -886 -971 -1409 -1394 -326 -264 -865 -622 -1260 -838 -361
-198 -905 -458 -1135 -543 -183 -68 -688 -238 -900 -303 -182 -56 -566 -159
-978 -262 -86 -22 -88 -22 -135 -4 -52 20 -93 31 -352 101 -675 181 -1266 375
-1675 550 -210 91 -694 318 -835 393 -265 140 -770 457 -1050 658 -125 90
-447 341 -535 418 -290 252 -642 596 -855 836 -92 103 -274 321 -340 407 -164
214 -216 286 -328 454 -312 469 -525 859 -772 1414 -150 338 -329 867 -415
1230 -119 501 -224 1164 -267 1680 -20 247 -17 1082 5 1355 67 829 177 1454
402 2290 95 354 413 1258 460 1310 9 10 35 21 58 24 201 31 511 115 1147 310
139 42 516 172 730 251 85 32 196 72 245 90 227 83 357 134 730 289 407 170
515 216 915 394 406 181 564 256 1030 489 350 175 620 317 835 441 44 25 100
57 125 70 143 77 601 351 695 416 44 31 83 56 87 56 4 0 33 -15 65 -34z"/>
<path d="M10185 17153 c-16 -8 -84 -48 -150 -88 -172 -103 -740 -431 -870
-502 -60 -33 -157 -86 -215 -118 -349 -192 -1222 -603 -1815 -855 -195 -83
-671 -278 -740 -303 -38 -14 -146 -55 -240 -92 -680 -268 -1536 -548 -2120
-696 -71 -18 -136 -37 -143 -43 -26 -19 -54 -91 -163 -414 -138 -412 -183
-559 -258 -852 -105 -411 -176 -742 -245 -1135 -45 -255 -94 -676 -121 -1030
-42 -564 -24 -1247 50 -1838 43 -341 129 -788 205 -1057 10 -36 30 -110 45
-165 133 -486 289 -900 507 -1335 180 -362 277 -530 538 -930 188 -288 256
-383 447 -626 129 -165 428 -493 549 -603 27 -25 110 -102 184 -171 197 -184
436 -390 585 -506 252 -195 559 -407 825 -569 477 -290 1115 -597 1592 -765
95 -33 229 -81 298 -105 344 -124 1207 -375 1285 -375 65 0 169 23 450 100 99
27 248 68 330 90 298 81 541 158 760 240 77 29 192 72 255 95 63 23 165 63
225 88 108 45 140 59 480 219 435 205 1104 603 1433 855 211 161 458 361 606
492 354 311 877 879 1179 1281 124 165 317 464 414 640 17 30 39 71 51 90 58
97 106 191 247 475 342 693 551 1335 699 2155 115 634 154 1230 127 1940 -9
260 -42 710 -56 780 -3 14 -12 88 -20 165 -36 328 -137 841 -276 1400 -129
515 -317 1103 -415 1296 -28 57 -26 56 -208 105 -359 98 -439 122 -671 195
-1170 368 -2246 790 -3287 1287 -79 38 -186 88 -238 112 -126 58 -859 431
-885 450 -5 4 -75 43 -155 85 -139 74 -183 98 -350 188 -41 22 -163 92 -270
155 -203 120 -382 212 -409 212 -9 -1 -29 -8 -46 -17z m116 -2673 c130 -63
179 -88 389 -202 271 -147 926 -473 1155 -576 1018 -455 2197 -869 3237 -1137
234 -60 277 -77 297 -120 19 -40 84 -298 116 -459 49 -247 79 -492 107 -871
17 -234 17 -1047 0 -1230 -49 -513 -118 -903 -244 -1364 -173 -638 -377 -1137
-679 -1669 -334 -586 -648 -1002 -1089 -1442 -252 -253 -444 -421 -677 -595
-87 -65 -174 -130 -193 -145 -19 -15 -102 -72 -185 -127 -521 -348 -1165 -662
-1775 -866 -307 -103 -520 -167 -554 -167 -59 0 -524 157 -851 287 -279 111
-750 341 -989 485 -133 80 -479 309 -586 389 -246 183 -613 500 -770 665 -311
328 -605 694 -834 1037 -139 211 -255 404 -374 627 -27 52 -62 118 -77 145
-69 130 -287 652 -384 922 -47 130 -143 460 -200 688 -120 483 -171 834 -206
1427 -36 613 0 1300 96 1858 31 180 90 464 97 472 4 4 90 28 192 54 102 25
253 65 335 89 83 24 188 55 235 68 169 49 587 185 745 242 66 24 192 69 280
100 424 148 804 294 1141 439 82 35 262 111 399 170 329 141 463 201 745 339
459 224 528 258 760 381 129 68 240 124 246 125 6 0 49 -17 95 -39z"/>
<path d="M10105 14132 c-49 -27 -169 -90 -265 -142 -96 -51 -254 -131 -350
-177 -827 -400 -749 -363 -1105 -518 -259 -112 -514 -215 -845 -340 -96 -37
-215 -83 -265 -102 -162 -64 -500 -180 -808 -278 -408 -130 -397 -126 -607
-185 -102 -29 -243 -69 -315 -89 l-130 -37 -22 -99 c-154 -705 -194 -1643
-103 -2405 51 -417 151 -923 245 -1235 146 -480 278 -820 469 -1207 155 -314
295 -557 488 -848 192 -290 293 -422 500 -654 34 -37 71 -80 82 -95 11 -14 49
-57 86 -94 36 -37 66 -74 68 -82 2 -8 7 -15 11 -15 4 0 16 -8 27 -18 156 -141
328 -294 404 -358 368 -310 820 -595 1365 -859 272 -132 418 -194 740 -311
116 -42 252 -92 303 -111 69 -25 101 -33 124 -28 110 25 815 280 1088 395 424
178 985 488 1318 727 100 72 351 276 451 368 335 303 560 549 816 889 123 165
261 368 377 556 285 464 550 1047 725 1595 91 287 195 731 232 995 68 477 86
726 85 1175 0 377 -15 634 -60 1003 -31 267 -47 355 -91 533 l-36 146 -146 46
c-80 25 -312 93 -516 152 -564 162 -1433 456 -1865 630 -667 269 -1023 430
-1676 759 -271 136 -344 175 -464 245 -82 48 -224 121 -236 121 -5 0 -49 -22
-99 -48z m240 -784 c59 -134 113 -259 120 -278 7 -19 37 -91 67 -160 31 -69
93 -213 138 -320 45 -107 149 -346 230 -530 269 -609 500 -1158 685 -1630 82
-206 177 -447 213 -535 35 -88 78 -194 94 -235 17 -41 64 -147 105 -235 42
-88 77 -172 80 -186 4 -21 -4 -32 -44 -64 -26 -21 -125 -113 -218 -204 -816
-795 -1329 -1285 -1493 -1429 l-94 -82 -246 232 c-136 127 -350 334 -477 458
-126 125 -356 349 -510 498 -154 150 -298 292 -319 317 -20 25 -91 93 -157
151 -86 77 -119 113 -119 129 0 13 16 46 35 75 19 29 35 56 35 62 0 12 31 90
142 358 50 118 108 265 130 325 58 158 61 164 128 335 34 85 95 243 136 350
104 268 198 497 316 770 28 63 88 207 133 320 46 113 121 297 168 410 47 113
128 309 180 435 211 511 253 609 314 730 59 117 95 175 109 175 7 0 60 -109
119 -242z m-1875 -6628 l0 -280 275 0 275 0 0 280 0 280 155 0 155 0 0 -715 0
-715 -155 0 -155 0 0 310 0 310 -275 0 -275 0 0 -310 0 -310 -155 0 -155 0 0
715 0 715 155 0 155 0 0 -280z m1988 252 c126 -38 209 -87 292 -171 138 -139
183 -263 183 -506 0 -172 -18 -259 -79 -383 -61 -125 -189 -234 -340 -288
-119 -44 -215 -54 -500 -54 l-264 0 0 716 0 715 318 -3 c291 -4 323 -6 390
-26z m1142 -252 l0 -280 275 0 275 0 0 280 0 280 155 0 155 0 0 -715 0 -715
-155 0 -155 0 0 310 0 310 -275 0 -275 0 0 -310 0 -310 -155 0 -155 0 0 715 0
715 155 0 155 0 0 -280z"/>
<path d="M10060 6285 l0 -465 68 0 c266 2 403 83 463 275 35 111 29 321 -13
432 -27 73 -101 153 -168 182 -59 25 -158 41 -267 41 l-83 0 0 -465z"/>
</g>
</svg>
